HIERARCHY
ROOT Elbow
{
	OFFSET	0.00	0.00	0.00
	CHANNELS 6 Xposition Yposition Zposition Zrotation Xrotation Yrotation
	JOINT L_Wrist
	{
		OFFSET	 0.208349	 0.000000	 0.000000
		CHANNELS 3 Zrotation Xrotation Yrotation
		JOINT L_index_Proximal
		{
			OFFSET	 0.093499	 0.010637	-0.002083
			CHANNELS 3 Zrotation Xrotation Yrotation
			JOINT L_index_b
			{
				OFFSET	 0.033153	 0.000000	 0.000000
				CHANNELS 3 Zrotation Xrotation Yrotation
				JOINT L_index_c
				{
					OFFSET	 0.018651	 0.000000	 0.000000
					CHANNELS 3 Zrotation Xrotation Yrotation
					End Site
					{
						OFFSET	 0.018651	 0.000000	 0.000000
					}
				}
			}
		}
		JOINT L_middle_Proximal
		{
			OFFSET	 0.090632	-0.006115	-0.003750
			CHANNELS 3 Zrotation Xrotation Yrotation
			JOINT L_middle_b
			{
				OFFSET	 0.037194	 0.000000	 0.000000
				CHANNELS 3 Zrotation Xrotation Yrotation
				JOINT L_middle_c
				{
					OFFSET	 0.021943	 0.000000	 0.000000
					CHANNELS 3 Zrotation Xrotation Yrotation
					End Site
					{
						OFFSET	 0.021943	 0.000000	 0.000000
					}
				}
			}
		}
		JOINT L_pinky_Proximal
		{
			OFFSET	 0.074015	-0.035449	-0.000417
			CHANNELS 3 Zrotation Xrotation Yrotation
			JOINT L_pinky_b
			{
				OFFSET	 0.027285	 0.000000	 0.000000
				CHANNELS 3 Zrotation Xrotation Yrotation
				JOINT L_pinky_c
				{
					OFFSET	 0.015093	 0.000000	 0.000000
					CHANNELS 3 Zrotation Xrotation Yrotation
					End Site
					{
						OFFSET	 0.015093	 0.000000	 0.000000
					}
				}
			}
		}
		JOINT L_ring_Proximal
		{
			OFFSET	 0.082801	-0.021859	-0.003750
			CHANNELS 3 Zrotation Xrotation Yrotation
			JOINT L_ring_b
			{
				OFFSET	 0.034478	 0.000000	 0.000000
				CHANNELS 3 Zrotation Xrotation Yrotation
				JOINT L_ring_c
				{
					OFFSET	 0.021377	 0.000000	 0.000000
					CHANNELS 3 Zrotation Xrotation Yrotation
					End Site
					{
						OFFSET	 0.021377	 0.000000	 0.000000
					}
				}
			}
		}
		JOINT L_thumb_Proximal
		{
			OFFSET	 0.030306	 0.018528	 0.004584
			CHANNELS 3 Zrotation Xrotation Yrotation
			JOINT L_thumb_a
			{
				OFFSET	 0.038520	 0.000000	 0.000000
				CHANNELS 3 Zrotation Xrotation Yrotation
				JOINT L_thumb_b
				{
					OFFSET	 0.026310	 0.000000	 0.000000
					CHANNELS 3 Zrotation Xrotation Yrotation
					End Site
					{
						OFFSET	 0.026310	 0.000000	 0.000000
					}
				}
			}
		}
	}
}
MOTION
Frames:    8
Frame Time: 0.01666667
-0.408450	-0.340412	 0.831582	 8.822285	 43.309060	-164.304400	-3.110947	-0.389935	-2.212021	-4.486001	 1.372500	-27.855290	-3.172225	 1.079678	-37.585030	-2.117383	 0.464863	-24.763040	-9.284627	-8.726200	-57.596220	 2.884108	-1.972199	-68.723050	 1.862072	-0.730507	-42.835830	-31.045660	-17.539310	-56.221270	-0.681737	 0.432254	-64.758060	 3.263215	-1.636162	-53.248390	-20.200360	-10.397270	-64.844180	 0.882245	-0.696464	-76.573330	 3.962778	-1.635317	-44.835160	 49.652940	 54.786150	-51.669540	-3.382355	 0.404392	-13.631890	-1.882431	 0.397044	-23.818630
-0.408450	-0.340412	 0.831582	 8.822285	 43.309090	-164.304400	-3.110920	-0.389938	-2.212036	-4.486013	 1.372506	-27.855240	-3.172234	 1.079675	-37.584930	-2.117363	 0.464870	-24.762990	-9.284613	-8.726208	-57.596070	 2.884134	-1.972206	-68.722920	 1.862042	-0.730497	-42.835830	-31.045640	-17.539330	-56.221120	-0.681750	 0.432259	-64.757960	 3.263188	-1.636154	-53.248450	-20.200360	-10.397270	-64.844040	 0.882216	-0.696442	-76.573280	 3.962760	-1.635309	-44.835150	 49.652970	 54.786180	-51.669590	-3.382358	 0.404379	-13.631890	-1.882397	 0.397030	-23.818610
-0.408961	-0.340121	 0.831249	 9.029477	 43.274660	-164.422500	-3.105681	-0.401537	-2.277940	-4.405364	 1.329138	-27.381560	-3.065669	 1.054033	-37.942220	-1.923605	 0.430143	-25.204610	-9.434886	-8.627916	-57.971670	 2.435375	-1.670942	-68.907050	 1.739397	-0.687620	-43.137590	-31.053070	-17.527460	-56.339440	-0.862271	 0.550162	-65.080010	 3.062694	-1.540501	-53.394950	-20.364890	-10.263580	-65.330120	 0.818520	-0.650524	-76.949650	 3.859628	-1.599969	-45.019740	 49.547760	 54.823350	-51.656890	-3.299585	 0.388528	-13.427870	-1.762750	 0.365929	-23.456330
-0.408804	-0.339812	 0.831114	 9.046497	 43.448060	-164.370200	-3.105160	-0.394040	-2.235280	-4.462107	 1.343856	-27.279010	-3.217726	 1.106359	-37.940960	-2.222707	 0.497358	-25.222560	-9.375683	-8.664916	-57.786380	 2.422003	-1.658827	-68.809840	 1.699425	-0.672821	-43.195630	-30.909390	-17.634290	-55.764270	-0.846334	 0.537071	-64.799440	 3.079850	-1.550950	-53.449610	-20.283670	-10.332620	-64.845520	 0.795205	-0.628862	-76.672340	 3.850883	-1.594693	-44.977380	 49.526400	 54.769340	-51.935410	-3.246926	 0.376324	-13.219120	-1.783706	 0.363835	-23.057710
-0.409494	-0.339877	 0.830897	 9.136436	 43.391000	-164.427700	-3.155555	-0.400863	-2.274085	-4.510584	 1.364861	-27.579510	-3.052589	 1.064356	-38.438670	-2.475373	 0.561529	-25.554720	-9.595032	-8.529265	-58.488050	 2.474392	-1.696767	-68.874260	 1.960101	-0.781908	-43.489400	-31.167970	-17.462260	-56.458060	-0.565477	 0.362287	-65.309970	 3.466870	-1.746263	-53.453610	-20.526730	-10.136740	-65.865230	 1.205649	-0.964098	-77.280530	 3.798866	-1.588376	-45.371690	 49.449750	 54.807950	-51.835050	-3.287138	 0.384209	-13.329190	-2.011778	 0.420555	-23.611240
-0.409494	-0.339558	 0.830620	 9.096408	 43.698620	-164.301500	-3.186491	-0.381469	-2.163966	-4.505417	 1.375462	-27.615800	-3.206736	 1.104226	-37.994620	-2.516160	 0.563119	-25.227170	-9.530786	-8.560863	-58.613950	 2.718763	-1.873345	-69.132120	 2.001675	-0.795003	-43.318340	-30.914750	-17.618460	-55.965820	-0.711306	 0.454927	-65.207130	 3.247006	-1.636698	-53.492070	-20.387870	-10.235780	-65.580080	 1.055348	-0.841866	-77.156160	 3.945355	-1.640310	-45.138150	 49.513430	 54.692680	-52.321280	-3.279606	 0.378368	-13.158360	-1.930578	 0.397800	-23.286210
-0.409540	-0.339174	 0.830450	 9.187205	 43.845910	-164.234100	-3.118292	-0.396912	-2.251611	-4.592369	 1.379367	-27.160640	-3.304777	 1.127765	-37.676410	-2.576918	 0.577024	-25.240070	-9.416649	-8.642454	-58.595890	 2.699095	-1.860857	-69.162680	 2.054502	-0.814143	-43.230210	-30.764750	-17.732790	-55.456200	-0.803352	 0.511729	-64.994800	 3.276573	-1.653711	-53.551490	-20.317570	-10.303800	-65.182080	 0.995526	-0.791207	-76.950500	 3.959625	-1.638673	-44.950620	 49.422920	 54.704920	-52.369770	-3.074917	 0.352095	-13.061780	-1.817526	 0.362255	-22.547400
-0.410035	-0.339078	 0.830099	 9.294743	 43.892950	-164.165800	-3.026992	-0.424362	-2.407376	-4.857375	 1.452658	-26.964490	-3.154542	 1.053532	-36.927200	-2.379061	 0.518584	-24.589980	-9.447308	-8.626763	-58.737310	 2.722602	-1.876337	-69.141450	 2.034904	-0.802905	-43.061580	-30.889700	-17.662610	-55.534460	-0.662336	 0.421724	-64.974010	 3.468369	-1.752715	-53.608040	-20.305910	-10.310630	-65.494450	 1.251792	-0.999744	-77.221280	 4.046152	-1.670850	-44.861460	 49.515980	 54.685470	-52.307010	-2.951722	 0.345291	-13.340260	-1.788470	 0.359721	-22.742280
